<svg
  viewBox="0 0 160 120"
  width="320"
  height="240"
  xmlns="http://www.w3.org/2000/svg"
>
  <!-- 背景 (空) -->
  <rect x="0" y="0" width="160" height="120" fill="hsl(200, 60%, 60%)" />

  <!-- 地面 -->
  <rect x="0" y="100" width="50" height="20" fill="hsl(100, 40%, 40%)" />
  <rect x="0" y="102" width="50" height="18" fill="hsl(30, 50%, 35%)" />
  <rect x="70" y="100" width="90" height="20" fill="hsl(100, 40%, 40%)" />
  <rect x="70" y="102" width="90" height="18" fill="hsl(30, 50%, 35%)" />

  <!-- 穴 -->
  <rect x="50" y="108" width="20" height="12" fill="hsl(240, 20%, 15%)" />

  <!-- くまさん -->
  <g transform="translate(20, 88)">
    <!-- 耳 -->
    <rect x="0" y="0" width="2" height="2" fill="hsl(30, 60%, 40%)" />
    <rect x="6" y="0" width="2" height="2" fill="hsl(30, 60%, 40%)" />
    <!-- 頭 -->
    <rect x="0" y="2" width="8" height="5" fill="hsl(30, 60%, 40%)" />
    <!-- 目 -->
    <rect x="1" y="3" width="1" height="1" fill="hsl(0, 0%, 0%)" />
    <rect x="6" y="3" width="1" height="1" fill="hsl(0, 0%, 0%)" />
    <!-- 鼻口 -->
    <rect x="3" y="5" width="2" height="1" fill="hsl(0, 70%, 50%)" />
    <!-- 体 -->
    <rect x="1" y="7" width="6" height="3" fill="hsl(30, 60%, 40%)" />
    <!-- 足 -->
    <rect x="1" y="10" width="2" height="2" fill="hsl(30, 60%, 40%)" />
    <rect x="5" y="10" width="2" height="2" fill="hsl(30, 60%, 40%)" />
  </g>

  <!-- キノコ -->
  <g transform="translate(60, 92)">
    <rect x="1" y="0" width="6" height="1" fill="hsl(0, 70%, 50%)" />
    <rect x="0" y="1" width="8" height="3" fill="hsl(0, 70%, 50%)" />
    <rect x="2" y="1" width="2" height="2" fill="hsl(0, 0%, 100%)" />
    <rect x="5" y="2" width="1" height="1" fill="hsl(0, 0%, 100%)" />
    <rect x="2" y="4" width="4" height="4" fill="hsl(0, 0%, 95%)" />
  </g>

  <!-- 怪獣 -->
  <g transform="translate(100, 86)">
    <rect x="1" y="0" width="1" height="2" fill="hsl(280, 50%, 50%)" />
    <rect x="8" y="0" width="1" height="2" fill="hsl(280, 50%, 50%)" />
    <rect x="0" y="2" width="10" height="8" fill="hsl(280, 50%, 50%)" />
    <rect x="1" y="3" width="2" height="2" fill="hsl(0, 0%, 100%)" />
    <rect x="7" y="3" width="2" height="2" fill="hsl(0, 0%, 100%)" />
    <rect x="2" y="4" width="1" height="1" fill="hsl(0, 0%, 0%)" />
    <rect x="7" y="4" width="1" height="1" fill="hsl(0, 0%, 0%)" />
    <rect x="3" y="6" width="4" height="1" fill="hsl(0, 70%, 50%)" />
    <rect x="1" y="10" width="2" height="4" fill="hsl(280, 50%, 50%)" />
    <rect x="7" y="10" width="2" height="4" fill="hsl(280, 50%, 50%)" />
  </g>

  <!-- お城 -->
  <g transform="translate(130, 72)">
    <rect x="0" y="4" width="3" height="24" fill="hsl(0, 0%, 60%)" />
    <rect x="13" y="4" width="3" height="24" fill="hsl(0, 0%, 60%)" />
    <rect x="3" y="8" width="10" height="20" fill="hsl(0, 0%, 60%)" />
    <rect x="0" y="0" width="3" height="4" fill="hsl(0, 0%, 50%)" />
    <rect x="13" y="0" width="3" height="4" fill="hsl(0, 0%, 50%)" />
    <rect x="5" y="5" width="6" height="3" fill="hsl(0, 0%, 50%)" />
    <!-- 窓 -->
    <rect x="4" y="12" width="2" height="3" fill="hsl(0, 0%, 20%)" />
    <rect x="10" y="12" width="2" height="3" fill="hsl(0, 0%, 20%)" />
    <!-- ドア -->
    <rect x="5" y="20" width="6" height="8" fill="hsl(30, 50%, 35%)" />
  </g>

  <!-- 雲 -->
  <g fill="hsl(0, 0%, 95%)">
    <rect x="15" y="20" width="20" height="6" />
    <rect x="18" y="17" width="14" height="3" />
    <rect x="80" y="25" width="15" height="5" />
    <rect x="82" y="22" width="11" height="3" />
  </g>
</svg>
